<?xml version="1.0" encoding="utf-8"?>
<!-- Generator: Adobe Illustrator 16.0.0, SVG Export Plug-In . SVG Version: 6.00 Build 0)  -->
<!DOCTYPE svg PUBLIC "-//W3C//DTD SVG 1.1//EN" "http://www.w3.org/Graphics/SVG/1.1/DTD/svg11.dtd">
<svg version="1.1" id="Layer_1" xmlns="http://www.w3.org/2000/svg" xmlns:xlink="http://www.w3.org/1999/xlink" x="0px" y="0px"
	 width="40.5px" height="41px" viewBox="0 0 40.5 41" enable-background="new 0 0 40.5 41" xml:space="preserve">
<path fill="#4BB8F6" d="M35,32.376C35,34.716,32.879,37,30.419,37H4.582C2.121,37,0,34.716,0,32.376V7.517C0,5.176,2.121,3,4.582,3
	h25.837C32.879,3,35,5.176,35,7.517V32.376z"/>
<g>
	<path fill="#FFFFFF" d="M24.217,24.523c-0.335,0.815-0.813,1.516-1.435,2.099c-0.622,0.582-1.372,1.037-2.25,1.363
		s-1.854,0.49-2.926,0.49c-1.088,0-2.067-0.164-2.938-0.49s-1.609-0.781-2.215-1.363c-0.606-0.583-1.072-1.283-1.399-2.099
		c-0.326-0.816-0.49-1.722-0.49-2.717V11.525h3.964v9.956c0,0.451,0.058,0.879,0.175,1.282c0.117,0.404,0.295,0.766,0.537,1.084
		c0.24,0.319,0.559,0.571,0.956,0.758s0.875,0.28,1.434,0.28s1.037-0.094,1.434-0.28s0.719-0.438,0.968-0.758
		c0.248-0.318,0.427-0.68,0.536-1.084c0.108-0.403,0.163-0.831,0.163-1.282v-9.956h3.987v10.282
		C24.718,22.802,24.55,23.707,24.217,24.523z"/>
</g>
<g>
</g>
<g>
</g>
<g>
</g>
<g>
</g>
<g>
</g>
<g>
</g>
<g>
</g>
<g>
</g>
<g>
</g>
<g>
</g>
<g>
</g>
<g>
</g>
<g>
</g>
<g>
</g>
<g>
</g>
</svg>
