<?xml version="1.0" encoding="utf-8"?>
<!-- Generator: Adobe Illustrator 16.0.0, SVG Export Plug-In . SVG Version: 6.00 Build 0)  -->
<!DOCTYPE svg PUBLIC "-//W3C//DTD SVG 1.1//EN" "http://www.w3.org/Graphics/SVG/1.1/DTD/svg11.dtd">
<svg version="1.1" xmlns="http://www.w3.org/2000/svg" xmlns:xlink="http://www.w3.org/1999/xlink" x="0px" y="0px" width="250px"
	 height="230px" viewBox="0 0 250 230" enable-background="new 0 0 250 230" xml:space="preserve">
<g id="Layer_1" display="none">
	<g display="inline">
		<path fill="#DDAB86" d="M135.876,101.991c0,0-12.026-22.215,8.534-9.386L135.876,101.991z"/>
		<path fill="#FFEEE1" d="M136.28,99.077c-1.639-3.563-2.74-7.382-2.045-8.55c0.045-0.074,0.15-0.249,0.76-0.249
			c1.02,0,3.009,0.5,6.824,2.707L136.28,99.077z"/>
		<path fill="#DDAB86" d="M165.615,101.706c0,0,10.712-22.88-9.065-8.874L165.615,101.706z"/>
		<path fill="#FFEEE1" d="M165.044,98.82c1.428-3.654,2.303-7.531,1.541-8.654c-0.048-0.073-0.164-0.241-0.772-0.206
			c-1.018,0.059-2.975,0.674-6.655,3.1L165.044,98.82z"/>
		<path fill="#E8BC9B" d="M117.209,134.124c0,0,0.208,3.635,2.18,4.676c0,0,3.428,1.973,7.062,1.764c0,0,3.012-0.104,0.727-2.389
			c0,0-0.66-1.189-2.77-2.182c0,0,0.277-3.115-0.552-4.258L117.209,134.124z"/>
		<path fill="#F3D0B0" d="M76.372,92.597c0,0,4.132-2.552,9.964-2.794c0,0-1.094-1.58-3.646-1.702c0,0,6.197-2.187,11.058,1.094
			c0,0-0.851-2.673-0.729-4.011c0,0,6.198,4.983,12.151,6.076c0,0-1.581-2.309-0.607-3.524c0,0,10.692,6.076,9.963,19.562
			c0,0,10.936-1.7,19.198,0l18.712,4.012l8.383,17.496c0,0-0.121,4.859,0.609,5.225c0,0-2.432-1.336-2.796,0.607l-0.85,4.982
			c0,0,5.102,0.727,5.588,4.617c0,0-8.749,1.215-12.271-0.852c0,0,0.485-7.045-2.553-8.383c0,0-0.364,1.092-1.457,1.943
			c0,0-0.852-1.822-1.459-1.822c0,0-0.365,1.215-0.729,2.307l-1.701-1.578l-5.833,3.523c0,0,3.524,2.795,3.645,4.617
			c0,0-5.467,2.553-12.392-1.336c0,0-0.243-7.41,0.362-8.141c0,0-0.729-0.486-1.942,1.459l-0.729-1.824l-1.337,0.852l-0.242-1.58
			l-2.431,1.58c0,0-1.215-0.486-0.729-1.945l-5.71,4.619c0,0,3.766,2.551,4.01,4.738c0,0-6.804,2.188-11.908-1.58
			c0,0-4.617-11.543-2.551-21.628c0,0-1.458-1.58-3.523-7.655c0,0-0.487-2.916-4.252-0.486c0,0-3.038,0.973-4.739-0.365
			c0,0,2.188-1.943,2.551-4.252c0,0-2.915,3.402-8.262,3.037c0,0,1.579-3.037,1.701-5.832c0,0-1.944,2.552-6.562,2.187
			c0,0,0.851-1.822,1.701-2.43c0,0-3.646-0.851-7.655-5.589c0,0,3.038,0.608,4.496,0.608l0.244-0.73
			C81.112,97.7,77.465,97.213,76.372,92.597z"/>
		<path fill="#E8BB9B" d="M131.056,104.976c0,0-5.676,3.185-4.709,14.402l-1.938,2.215c0,0,1.938,2.354,4.154,2.078
			c0,0-0.553,3.598,0.97,5.537c0,0,1.522-2.215,2.632-1.662c0,0-0.693,2.078,2.215,4.432c0,0,0.553-2.215,1.523-2.354
			c0,0,0.692,2.076,2.77,3.184c0,0,0.692-3.184,2.354-2.354c0,0,0.658,2.533,2.632,3.602c0,0,1.246-2.215,2.077-2.633
			c0,0-0.015,1.924,1.938,3.186c0,0,1.661-2.076,1.938-2.908c0,0,1.939,2.631,1.661,3.877c0,0,3.048-1.938,4.432-3.736
			c0,0,1.107,1.521,1.107,2.49c0,0,1.524-1.523,2.355-3.184c0,0,1.396,1.471,1.044,2.465c0,0,0.756-1.357,1.587-2.881
			c0,0,1.759,1.523,1.157,2.631c0,0,1.751-2.631,1.889-5.955c0,0,1.524,1.248,1.524,2.631c0,0,1.8-4.844,0.553-6.23
			c0,0,2.354-0.277,2.493-0.83c0,0-1.524-0.969-1.246-4.709c0,0,0.276-5.124-2.354-8.031l-20.515-0.458L131.056,104.976z"/>
		<path fill="#F3D0B0" d="M153.923,90.727c0,0-2.8-1.162-7.011,0c0,0-2.466-1.994-2.466-2.493c0,0-0.748,1.414-0.248,2.493
			l-2.329-0.581v1.496c0,0-0.748-0.582-1.746-0.166c0,0,0.5,0.997,0,1.746c0,0-3.573,2.493-5.401,6.067l-2.244,0.374
			c0,0,0.498,0.54,1.08,1.787c0,0-4.138,2.812-4.146,4.981c0,0,3.462-0.806,3.557,0.722c0,0-2.135,0.365-3.557,2.941
			c0,0,4.146-0.332,4.562,0.832c0,0-2.079,0.248-2.327,1.744c0,0,2.244-0.414,3.492,0.333c0,0-1.83,1-1.664,1.995
			c0,0,4.738-0.58,5.57,0l5.154,2.41c0,0,7.065,4.904,12.135-0.332l6.316-2.078c0,0,2.827,0.003,4.655,0.167
			c0,0-0.415-1.663-1.247-2.078c0,0,0.812-0.831,3.357-0.667c0,0-0.86-1.129-2.442-1.662c0,0,1.828-1.578,4.655-0.581
			c0,0-1.414-1.994-3.407-3.074c0,0-0.086-1.081,3.407-0.915c0,0-0.084-1.828-3.906-4.323c0,0-0.749-0.997,1.246-2.326
			c0,0-1.663-0.167-2.328,0.165c0,0-2.576-4.737-6.067-6.732c0,0-0.416-0.582,0.332-1.33c0,0-1.328-0.499-2.077,0.167
			c0,0,0.25-0.915,0.167-1.58c0,0-0.997,0.083-1.746,0.832c0,0,0-1.997-0.665-2.827C156.583,88.234,156.249,89.397,153.923,90.727z"
			/>
		<path fill="#FFEDDF" d="M134.839,109.295c0,0,3.545,0.591,7.325-1.3c3.781-1.891,8.354-0.473,8.354-0.473s3.52-1.299,8.363,0.945
			c1.59,0.736,3.841,1.18,6.971,0.678c0,0,0.119,1.391-2.953,2.395c0,0,2.025,0.049,2.718,0.709c0,0-0.532,0.886-3.132,1.477
			c0,0,1.414,1.125,2.955,0.827c0,0-1.833,4.313-7.621,4.076c0,0-5.917-0.177-6.768-5.198h-1.03c0,0-1.83,5.098-7.62,5.207
			c0,0-5.314-0.113-7.311-3.796c0,0,2.645-0.407,3.116-1.116c0,0-1.66,0.521-3.072-1.299c0,0,0.532-0.828,2.481-1.006
			C137.616,111.421,134.976,111.081,134.839,109.295z"/>
		<path fill="#DEAB81" d="M151.838,115.218c0,0.822-0.669,1.49-1.491,1.49c-0.824,0-1.492-0.668-1.492-1.49
			c0-0.824,0.841-7.695,1.664-7.695C151.344,107.522,151.838,114.394,151.838,115.218z"/>
		<circle fill="#F89992" cx="150.52" cy="107.435" r="1.447"/>
		<path fill="#E9BA9A" d="M138.562,102.916c0,0,2.109,0.485,3.543-0.887c0.99-0.946,3.9-1.359,5.377,1.042
			c0,0,1.444,3.567-2.186,4.363c0,0-2.481,0.502-4.254-0.738c0,0-0.503-0.851-2.836-0.473c0,0,0.769-1.079,1.891-1.248
			C140.097,104.976,138.562,103.742,138.562,102.916z"/>
		<circle fill="#DE8B37" cx="144.492" cy="104.537" r="2.544"/>
		<ellipse fill="#454441" cx="144.367" cy="104.52" rx="0.822" ry="1.757"/>
		<circle fill="#FFFFFF" cx="145.065" cy="103.591" r="0.57"/>
		<path fill="#E9BA9A" d="M162.357,102.916c0,0-2.11,0.485-3.544-0.887c-0.989-0.946-3.899-1.359-5.377,1.042
			c0,0-1.444,3.567,2.186,4.363c0,0,2.482,0.502,4.254-0.738c0,0,0.505-0.851,2.836-0.473c0,0-0.768-1.079-1.891-1.248
			C160.821,104.976,162.357,103.742,162.357,102.916z"/>
		<circle fill="#DE8B37" cx="156.427" cy="104.537" r="2.545"/>
		<ellipse fill="#454441" cx="156.551" cy="104.52" rx="0.822" ry="1.757"/>
		<circle fill="#FFFFFF" cx="157.249" cy="103.467" r="0.57"/>
	</g>
</g>
<g id="Layer_2">
	<path fill="#3DC0F1" d="M136.461,146.815c-2.999,0-5.966-0.812-8.819-2.414l-0.982-0.552c0,0-0.041-1.237-0.042-1.292
		c-0.032,0.002-0.064,0.004-0.097,0.005c-0.175,0.011-0.396,0.017-0.615,0.017c-1.477,0-2.888-0.279-4.081-0.632
		c0.014,0.082,0.026,0.164,0.035,0.246l0.181,1.625l-1.557,0.501c-0.092,0.029-2.295,0.728-5.186,0.728
		c-3.315,0-6.183-0.876-8.522-2.603l-0.458-0.338l-0.211-0.528c-0.192-0.48-4.565-11.586-2.817-21.9
		c-0.7-1.091-1.874-3.305-3.294-7.482l-0.021-0.062c-0.223,0.057-0.627,0.209-1.253,0.613l-0.223,0.144l-0.252,0.081
		c-0.14,0.044-1.407,0.437-2.899,0.437c-1.489,0-2.729-0.381-3.686-1.134l-1.253-0.986c-0.748,0.143-1.556,0.226-2.423,0.226
		c-0.304,0-0.616-0.01-0.934-0.032l-3.047-0.208l1.409-2.71c0.004-0.009,0.199-0.389,0.446-0.982
		c-0.774,0.183-1.653,0.296-2.642,0.296c-0.335,0-0.685-0.013-1.047-0.042l-2.875-0.227l1.221-2.613
		c0.074-0.158,0.206-0.428,0.384-0.752c-1.616-0.892-3.788-2.452-6.053-5.128l-3.704-4.377l4.225,0.844
		c-0.383-0.712-0.709-1.547-0.94-2.523l-0.333-1.404l1.228-0.758c0.145-0.089,2.864-1.743,7.009-2.603l-0.305-2.078
		c0.096-0.034,2.379-0.828,5.33-0.828c1.293,0,2.517,0.147,3.665,0.439c-0.017-0.29-0.016-0.567,0.007-0.822l0.336-3.71l2.908,2.331
		c0.046,0.037,3.762,2.991,7.989,4.688c0.063-0.625,0.282-1.251,0.742-1.826l1.066-1.332l1.483,0.843
		c0.453,0.257,10.524,6.134,10.995,19.028c2.004-0.22,5.106-0.481,8.524-0.481c0.957,0,1.89,0.021,2.79,0.062
		c0.672-1.453,1.992-2.764,3.097-3.684l-2.192-2.639l3.075-0.534c-2.385-6.387-1.034-8.468-0.558-9.203
		c0.566-0.873,1.693-1.913,3.845-1.913c1.328,0,2.938,0.412,4.874,1.251v-0.318l2.337,0.6c0.12-0.395,0.25-0.682,0.309-0.803
		l3.801,0.87c0-0.531-0.228-0.855-0.229-0.858c0.136,0.189,0.636,0.669,1.209,1.17c1.067-0.223,2.131-0.335,3.176-0.335
		c1.285,0,2.317,0.172,3.024,0.342c0.649-0.454,0.938-0.808,1.044-0.959l0.494-4.76l2.98,4.151c0.292,0.365,0.507,0.801,0.665,1.254
		c0.007,0,1.506-0.126,1.506-0.126c2.275-1.208,4.133-1.799,5.637-1.799c1.558,0,2.854,0.642,3.649,1.808
		c0.497,0.729,1.897,2.784-0.241,9.449l5.349,0.546l-4.548,3.032c3.092,2.407,3.438,4.357,3.465,4.949l0.101,2.194l-1.086-0.052
		c0.347,0.405,0.562,0.701,0.619,0.782l3.643,5.138l-4.989-1.76l1.753,2.3l-3.819-0.246c0.407,2.099,0.325,3.82,0.319,3.92
		c-0.152,2.051,0.328,2.834,0.454,3l1.086,0.69l-0.352,1.4c-0.216,0.861-0.851,1.467-1.994,1.866
		c0.045,1.877-0.594,3.999-1.116,5.404l-1.86-0.334c-0.637,2.356-1.701,3.978-1.763,4.07l-2.165-1.305l-0.406-0.224l-0.645,1.168
		l-0.875,1.707l-0.065-0.033l-0.402,2.358c2.297,0.818,4.886,2.598,5.292,5.847l0.245,1.958l-1.954,0.271
		c-0.11,0.015-2.727,0.373-5.734,0.373c-3.566,0-6.125-0.484-7.823-1.481l-1.068-0.627l0.085-1.235
		c0.11-1.669-0.077-3.65-0.483-4.975c-0.096,0.085-0.196,0.168-0.302,0.25l-1.979,1.543l-0.12-0.259l-0.4,1.202l-2.874-2.666
		l-2.253,1.36c1.133,1.196,2.221,2.705,2.316,4.157l0.09,1.365l-1.239,0.579C141.638,145.908,139.604,146.815,136.461,146.815z"/>
	<path fill="#FFFFFF" d="M168.221,107.104c0,0-0.086-1.081,3.407-0.915c0,0-0.084-1.828-3.906-4.323c0,0-0.749-0.997,1.246-2.326
		c0,0-1.663-0.167-2.328,0.165c0,0-0.038-0.069-0.103-0.182c1.988-5.069,5.494-16.589-7.59-8.294c0.05-0.306,0.087-0.681,0.047-1
		c0,0-0.997,0.083-1.746,0.832c0,0,0-1.997-0.665-2.827c0,0-0.334,1.164-2.66,2.493c0,0-2.8-1.162-7.011,0
		c0,0-2.466-1.994-2.466-2.493c0,0-0.683,1.414-0.183,2.493L142,90.146v0.968c-13-7.189-9.66,3.03-7.356,8.199l-2.134,0.35
		c0,0,0.482,0.54,1.064,1.787c0,0-4.146,2.812-4.155,4.981c0,0,0.011-0.003,0.028-0.007c-0.073,0.086-0.148,0.174-0.225,0.269
		c-7.247-0.551-14.696,0.605-14.696,0.605c0.729-13.486-9.963-19.562-9.963-19.562c-0.973,1.216,0.607,3.524,0.607,3.524
		c-5.954-1.093-12.152-6.076-12.152-6.076c-0.121,1.337,0.729,4.011,0.729,4.011c-4.86-3.281-11.058-1.094-11.058-1.094
		c2.552,0.122,3.646,1.702,3.646,1.702c-5.832,0.243-9.964,2.794-9.964,2.794c1.093,4.617,4.74,5.103,4.74,5.103l-0.244,0.73
		c-1.458,0-4.496-0.608-4.496-0.608c4.01,4.739,7.655,5.589,7.655,5.589c-0.85,0.608-1.701,2.43-1.701,2.43
		c4.618,0.365,6.562-2.187,6.562-2.187c-0.122,2.794-1.701,5.832-1.701,5.832c5.347,0.365,8.262-3.037,8.262-3.037
		c-0.363,2.309-2.551,4.252-2.551,4.252c1.701,1.338,4.739,0.365,4.739,0.365c3.766-2.43,4.252,0.486,4.252,0.486
		c2.065,6.075,3.523,7.655,3.523,7.655c-2.066,10.085,2.551,21.628,2.551,21.628c5.104,3.768,11.908,1.58,11.908,1.58
		c-0.244-2.188-4.01-4.738-4.01-4.738l1.756-1.42c0.309,0.989,0.843,2.053,1.771,2.543c0,0,3.428,1.973,7.062,1.764
		c0,0,3.012-0.104,0.727-2.389c0,0-0.66-1.189-2.77-2.182c0,0,0.104-1.181-0.008-2.354l0.332-0.216l0.242,1.58l1.337-0.852
		l0.729,1.824c1.214-1.945,1.942-1.459,1.942-1.459c-0.605,0.73-0.362,8.141-0.362,8.141c6.925,3.889,12.392,1.336,12.392,1.336
		c-0.12-1.822-3.645-4.617-3.645-4.617l5.833-3.523l1.701,1.578c0.363-1.092,0.729-2.307,0.729-2.307
		c0.607,0,1.459,1.822,1.459,1.822c1.093-0.852,1.457-1.943,1.457-1.943c3.038,1.338,2.553,8.383,2.553,8.383
		c3.521,2.066,12.271,0.852,12.271,0.852c-0.486-3.891-5.588-4.617-5.588-4.617l0.85-4.982c0.364-1.943,2.796-0.607,2.796-0.607
		c-0.263-0.132-0.414-0.848-0.502-1.707c0.256-0.465,0.559-1.016,0.873-1.592c0,0,1.759,1.523,1.157,2.631
		c0,0,1.751-2.631,1.889-5.955c0,0,1.524,1.248,1.524,2.631c0,0,1.8-4.844,0.553-6.23c0,0,2.354-0.277,2.493-0.83
		c0,0-1.524-0.969-1.246-4.709c0,0,0.157-2.996-0.943-5.706c0.516-0.124,1.229-0.204,2.189-0.142c0,0-0.86-1.129-2.442-1.662
		c0,0,1.828-1.578,4.655-0.581C171.628,110.178,170.214,108.184,168.221,107.104z"/>
	<g>
	</g>
	<g>
	</g>
	<g>
	</g>
	<g>
	</g>
	<g>
	</g>
	<g>
	</g>
	<g>
	</g>
	<g>
	</g>
	<g>
	</g>
	<g>
	</g>
	<g>
	</g>
	<g>
	</g>
	<g>
	</g>
	<g>
	</g>
	<g>
	</g>
</g>
</svg>
